<svg width="255" height="32" viewBox="0 0 255 32" fill="none" xmlns="http://www.w3.org/2000/svg">
<path d="M16.0005 8.32643C16.0005 12.384 12.7112 15.6734 8.65358 15.6734H1.30664V8.32643C1.30664 4.26882 4.59597 0.979492 8.65358 0.979492C12.7112 0.979492 16.0005 4.26882 16.0005 8.32643Z" fill="#704FE6"/>
<path d="M16 23.0205C16 18.9629 19.2893 15.6736 23.3469 15.6736H30.6939V23.0205C30.6939 27.0781 27.4045 30.3675 23.3469 30.3675C19.2893 30.3675 16 27.0781 16 23.0205Z" fill="#704FE6"/>
<path d="M1.30664 23.0205C1.30664 27.0781 4.59597 30.3675 8.65358 30.3675H16.0005V23.0205C16.0005 18.9629 12.7112 15.6736 8.65358 15.6736C4.59597 15.6736 1.30664 18.9629 1.30664 23.0205Z" fill="#704FE6"/>
<path d="M30.6939 8.32643C30.6939 4.26882 27.4045 0.979492 23.3469 0.979492H16V8.32643C16 12.384 19.2893 15.6734 23.3469 15.6734C27.4045 15.6734 30.6939 12.384 30.6939 8.32643Z" fill="#FFBE17"/>
<path d="M72.528 6.98934C72.9013 6.98934 73.2467 7.12934 73.564 7.40934C73.8813 7.67067 74.04 8.03467 74.04 8.50134C74.04 8.63201 74.012 8.79067 73.956 8.97734L68.216 25.7773C68.1227 26.0573 67.9547 26.272 67.712 26.4213C67.4693 26.5707 67.2173 26.6547 66.956 26.6733C66.6947 26.6733 66.4333 26.5987 66.172 26.4493C65.9107 26.3 65.7147 26.076 65.584 25.7773L61.16 15.4173L61.412 15.5293L57.044 25.7773C56.8947 26.076 56.6893 26.3 56.428 26.4493C56.1853 26.5987 55.924 26.6733 55.644 26.6733C55.4013 26.6547 55.1587 26.5707 54.916 26.4213C54.6733 26.272 54.5053 26.0573 54.412 25.7773L48.672 8.97734C48.616 8.79067 48.588 8.63201 48.588 8.50134C48.588 8.03467 48.756 7.67067 49.092 7.40934C49.428 7.12934 49.7733 6.98934 50.128 6.98934C50.4267 6.98934 50.6973 7.07334 50.94 7.24134C51.2013 7.39067 51.3787 7.61467 51.472 7.91334L56.316 22.3613H55.812L60.068 11.9453C60.1987 11.6653 60.376 11.4413 60.6 11.2733C60.8427 11.1053 61.1133 11.0307 61.412 11.0493C61.7107 11.0307 61.972 11.1053 62.196 11.2733C62.4387 11.4413 62.616 11.6653 62.728 11.9453L66.76 22.0533L66.34 22.2773L71.156 7.91334C71.2493 7.61467 71.4267 7.39067 71.688 7.24134C71.9493 7.07334 72.2293 6.98934 72.528 6.98934ZM90.2947 19.3093C90.2947 20.8027 89.968 22.128 89.3147 23.2853C88.6613 24.424 87.7747 25.32 86.6547 25.9733C85.5347 26.6267 84.2747 26.9533 82.8747 26.9533C81.4747 26.9533 80.2147 26.6267 79.0947 25.9733C77.9747 25.32 77.0787 24.424 76.4067 23.2853C75.7533 22.128 75.4267 20.8027 75.4267 19.3093C75.4267 17.7973 75.7533 16.472 76.4067 15.3333C77.0787 14.176 77.9747 13.2707 79.0947 12.6173C80.2147 11.9453 81.4747 11.6093 82.8747 11.6093C84.2747 11.6093 85.5347 11.9453 86.6547 12.6173C87.7747 13.2707 88.6613 14.176 89.3147 15.3333C89.968 16.472 90.2947 17.7973 90.2947 19.3093ZM87.4947 19.3093C87.4947 18.2827 87.2893 17.396 86.8787 16.6493C86.468 15.884 85.908 15.2867 85.1987 14.8573C84.508 14.4093 83.7333 14.1853 82.8747 14.1853C82.016 14.1853 81.232 14.4093 80.5227 14.8573C79.8133 15.2867 79.2533 15.884 78.8427 16.6493C78.432 17.396 78.2267 18.2827 78.2267 19.3093C78.2267 20.2987 78.432 21.176 78.8427 21.9413C79.2533 22.7067 79.8133 23.304 80.5227 23.7333C81.232 24.1627 82.016 24.3773 82.8747 24.3773C83.7333 24.3773 84.508 24.1627 85.1987 23.7333C85.908 23.304 86.468 22.7067 86.8787 21.9413C87.2893 21.176 87.4947 20.2987 87.4947 19.3093ZM101.052 11.6093C102.377 11.6093 103.404 11.8893 104.132 12.4493C104.86 12.9907 105.364 13.728 105.644 14.6613C105.943 15.576 106.092 16.6027 106.092 17.7413V25.2453C106.092 25.656 105.952 26.0013 105.672 26.2813C105.411 26.5427 105.084 26.6733 104.692 26.6733C104.281 26.6733 103.945 26.5427 103.684 26.2813C103.423 26.0013 103.292 25.656 103.292 25.2453V17.7693C103.292 17.0973 103.199 16.5 103.012 15.9773C102.825 15.436 102.499 15.0067 102.032 14.6893C101.584 14.3533 100.949 14.1853 100.128 14.1853C99.3626 14.1853 98.6906 14.3533 98.1119 14.6893C97.5332 15.0067 97.0759 15.436 96.7399 15.9773C96.4226 16.5 96.2639 17.0973 96.2639 17.7693V25.2453C96.2639 25.656 96.1239 26.0013 95.8439 26.2813C95.5826 26.5427 95.2559 26.6733 94.8639 26.6733C94.4532 26.6733 94.1172 26.5427 93.8559 26.2813C93.5946 26.0013 93.4639 25.656 93.4639 25.2453V13.3733C93.4639 12.9627 93.5946 12.6267 93.8559 12.3653C94.1172 12.0853 94.4532 11.9453 94.8639 11.9453C95.2559 11.9453 95.5826 12.0853 95.8439 12.3653C96.1239 12.6267 96.2639 12.9627 96.2639 13.3733V14.9413L95.7599 15.2213C95.8906 14.8107 96.1146 14.4 96.4319 13.9893C96.7679 13.56 97.1692 13.168 97.6359 12.8133C98.1026 12.44 98.6252 12.1507 99.2039 11.9453C99.7826 11.7213 100.399 11.6093 101.052 11.6093ZM122.048 5.95334C122.458 5.95334 122.794 6.08401 123.056 6.34534C123.317 6.60667 123.448 6.95201 123.448 7.38134V25.2453C123.448 25.656 123.317 26.0013 123.056 26.2813C122.794 26.5427 122.458 26.6733 122.048 26.6733C121.656 26.6733 121.32 26.5427 121.04 26.2813C120.778 26.0013 120.648 25.656 120.648 25.2453V23.2293L121.236 23.2573C121.236 23.5933 121.096 23.976 120.816 24.4053C120.554 24.816 120.19 25.2173 119.724 25.6093C119.257 26.0013 118.706 26.328 118.072 26.5893C117.437 26.832 116.756 26.9533 116.028 26.9533C114.74 26.9533 113.582 26.6267 112.556 25.9733C111.529 25.3013 110.717 24.396 110.12 23.2573C109.522 22.1 109.224 20.7747 109.224 19.2813C109.224 17.788 109.522 16.472 110.12 15.3333C110.717 14.176 111.52 13.2707 112.528 12.6173C113.554 11.9453 114.693 11.6093 115.944 11.6093C116.728 11.6093 117.456 11.74 118.128 12.0013C118.818 12.2627 119.416 12.5987 119.92 13.0093C120.424 13.42 120.816 13.8587 121.096 14.3253C121.376 14.7733 121.516 15.2027 121.516 15.6133L120.648 15.6973V7.38134C120.648 6.97067 120.778 6.63467 121.04 6.37334C121.32 6.09334 121.656 5.95334 122.048 5.95334ZM116.336 24.3773C117.232 24.3773 118.006 24.1533 118.66 23.7053C119.332 23.2573 119.854 22.6507 120.228 21.8853C120.601 21.12 120.788 20.252 120.788 19.2813C120.788 18.3107 120.601 17.4427 120.228 16.6773C119.854 15.912 119.332 15.3053 118.66 14.8573C117.988 14.4093 117.213 14.1853 116.336 14.1853C115.477 14.1853 114.712 14.4093 114.04 14.8573C113.386 15.3053 112.864 15.912 112.472 16.6773C112.098 17.4427 111.912 18.3107 111.912 19.2813C111.912 20.252 112.098 21.12 112.472 21.8853C112.864 22.6507 113.386 23.2573 114.04 23.7053C114.712 24.1533 115.477 24.3773 116.336 24.3773ZM134.23 26.9533C132.681 26.9533 131.337 26.636 130.198 26.0013C129.059 25.348 128.173 24.4613 127.538 23.3413C126.922 22.2027 126.614 20.9053 126.614 19.4493C126.614 17.8067 126.941 16.4067 127.594 15.2493C128.266 14.0733 129.134 13.1773 130.198 12.5613C131.262 11.9267 132.391 11.6093 133.586 11.6093C134.501 11.6093 135.369 11.796 136.19 12.1693C137.011 12.524 137.739 13.028 138.374 13.6813C139.027 14.316 139.541 15.072 139.914 15.9493C140.287 16.808 140.483 17.7507 140.502 18.7773C140.483 19.1507 140.334 19.4587 140.054 19.7013C139.774 19.944 139.447 20.0653 139.074 20.0653H128.182L127.51 17.6853H138.038L137.506 18.1893V17.4893C137.469 16.836 137.254 16.2667 136.862 15.7813C136.47 15.2773 135.985 14.8947 135.406 14.6333C134.827 14.3533 134.221 14.2133 133.586 14.2133C133.026 14.2133 132.485 14.3067 131.962 14.4933C131.458 14.6613 131.001 14.9413 130.59 15.3333C130.198 15.7253 129.881 16.248 129.638 16.9013C129.414 17.536 129.302 18.3293 129.302 19.2813C129.302 20.308 129.517 21.204 129.946 21.9693C130.375 22.7347 130.954 23.332 131.682 23.7613C132.41 24.172 133.213 24.3773 134.09 24.3773C134.781 24.3773 135.35 24.312 135.798 24.1813C136.246 24.032 136.619 23.8547 136.918 23.6493C137.217 23.444 137.478 23.248 137.702 23.0613C137.982 22.8933 138.262 22.8093 138.542 22.8093C138.878 22.8093 139.158 22.9307 139.382 23.1733C139.606 23.3973 139.718 23.668 139.718 23.9853C139.718 24.396 139.513 24.7693 139.102 25.1053C138.598 25.5907 137.898 26.02 137.002 26.3933C136.125 26.7667 135.201 26.9533 134.23 26.9533ZM145.067 26.6733C144.656 26.6733 144.32 26.5427 144.059 26.2813C143.798 26.0013 143.667 25.656 143.667 25.2453V13.3733C143.667 12.9627 143.798 12.6267 144.059 12.3653C144.32 12.0853 144.656 11.9453 145.067 11.9453C145.459 11.9453 145.786 12.0853 146.047 12.3653C146.327 12.6267 146.467 12.9627 146.467 13.3733V16.5093L146.187 15.3053C146.336 14.7827 146.56 14.2973 146.859 13.8493C147.176 13.4013 147.55 13.0093 147.979 12.6733C148.408 12.3373 148.884 12.076 149.407 11.8893C149.948 11.7027 150.508 11.6093 151.087 11.6093C151.572 11.6093 151.992 11.74 152.347 12.0013C152.702 12.2627 152.879 12.5893 152.879 12.9813C152.879 13.4853 152.748 13.8587 152.487 14.1013C152.226 14.3253 151.936 14.4373 151.619 14.4373C151.339 14.4373 151.068 14.3813 150.807 14.2693C150.546 14.1387 150.238 14.0733 149.883 14.0733C149.491 14.0733 149.09 14.176 148.679 14.3813C148.268 14.5867 147.895 14.8947 147.559 15.3053C147.223 15.6973 146.952 16.164 146.747 16.7053C146.56 17.2467 146.467 17.8533 146.467 18.5253V25.2453C146.467 25.656 146.327 26.0013 146.047 26.2813C145.786 26.5427 145.459 26.6733 145.067 26.6733ZM169.342 26.7013C168.913 26.7013 168.567 26.524 168.306 26.1693L161.334 17.1813L163.49 14.9973L170.602 24.2653C170.826 24.564 170.938 24.8907 170.938 25.2453C170.938 25.6933 170.77 26.048 170.434 26.3093C170.098 26.5707 169.734 26.7013 169.342 26.7013ZM169.482 6.98934C169.855 6.98934 170.163 7.13867 170.406 7.43734C170.649 7.73601 170.77 8.04401 170.77 8.36134C170.77 8.69734 170.63 9.00534 170.35 9.28534L158.282 20.7373L158.114 17.4333L168.362 7.52134C168.698 7.16667 169.071 6.98934 169.482 6.98934ZM157.134 26.6733C156.705 26.6733 156.35 26.5427 156.07 26.2813C155.809 26.0013 155.678 25.656 155.678 25.2453V8.50134C155.678 8.09067 155.818 7.75467 156.098 7.49334C156.378 7.21334 156.742 7.07334 157.19 7.07334C157.619 7.07334 157.965 7.21334 158.226 7.49334C158.487 7.75467 158.618 8.09067 158.618 8.50134V25.2453C158.599 25.656 158.459 26.0013 158.198 26.2813C157.937 26.5427 157.582 26.6733 157.134 26.6733ZM176.541 25.2453C176.541 25.656 176.411 26.0013 176.149 26.2813C175.888 26.5427 175.552 26.6733 175.141 26.6733C174.749 26.6733 174.413 26.5427 174.133 26.2813C173.872 26.0013 173.741 25.656 173.741 25.2453V13.2613C173.741 12.8507 173.872 12.5147 174.133 12.2533C174.413 11.9733 174.749 11.8333 175.141 11.8333C175.552 11.8333 175.888 11.9733 176.149 12.2533C176.411 12.5147 176.541 12.8507 176.541 13.2613V25.2453ZM175.113 9.98534C174.572 9.98534 174.18 9.89201 173.937 9.70534C173.695 9.50001 173.573 9.16401 173.573 8.69734V8.24934C173.573 7.78267 173.704 7.45601 173.965 7.26934C174.227 7.08267 174.619 6.98934 175.141 6.98934C175.701 6.98934 176.103 7.09201 176.345 7.29734C176.588 7.48401 176.709 7.80134 176.709 8.24934V8.69734C176.709 9.18267 176.579 9.51867 176.317 9.70534C176.075 9.89201 175.673 9.98534 175.113 9.98534ZM192.376 5.95334C192.786 5.95334 193.122 6.08401 193.384 6.34534C193.645 6.60667 193.776 6.95201 193.776 7.38134V25.2453C193.776 25.656 193.645 26.0013 193.384 26.2813C193.122 26.5427 192.786 26.6733 192.376 26.6733C191.984 26.6733 191.648 26.5427 191.368 26.2813C191.106 26.0013 190.976 25.656 190.976 25.2453V23.2293L191.564 23.2573C191.564 23.5933 191.424 23.976 191.144 24.4053C190.882 24.816 190.518 25.2173 190.052 25.6093C189.585 26.0013 189.034 26.328 188.4 26.5893C187.765 26.832 187.084 26.9533 186.356 26.9533C185.068 26.9533 183.91 26.6267 182.884 25.9733C181.857 25.3013 181.045 24.396 180.448 23.2573C179.85 22.1 179.552 20.7747 179.552 19.2813C179.552 17.788 179.85 16.472 180.448 15.3333C181.045 14.176 181.848 13.2707 182.856 12.6173C183.882 11.9453 185.021 11.6093 186.272 11.6093C187.056 11.6093 187.784 11.74 188.456 12.0013C189.146 12.2627 189.744 12.5987 190.248 13.0093C190.752 13.42 191.144 13.8587 191.424 14.3253C191.704 14.7733 191.844 15.2027 191.844 15.6133L190.976 15.6973V7.38134C190.976 6.97067 191.106 6.63467 191.368 6.37334C191.648 6.09334 191.984 5.95334 192.376 5.95334ZM186.664 24.3773C187.56 24.3773 188.334 24.1533 188.988 23.7053C189.66 23.2573 190.182 22.6507 190.556 21.8853C190.929 21.12 191.116 20.252 191.116 19.2813C191.116 18.3107 190.929 17.4427 190.556 16.6773C190.182 15.912 189.66 15.3053 188.988 14.8573C188.316 14.4093 187.541 14.1853 186.664 14.1853C185.805 14.1853 185.04 14.4093 184.368 14.8573C183.714 15.3053 183.192 15.912 182.8 16.6773C182.426 17.4427 182.24 18.3107 182.24 19.2813C182.24 20.252 182.426 21.12 182.8 21.8853C183.192 22.6507 183.714 23.2573 184.368 23.7053C185.04 24.1533 185.805 24.3773 186.664 24.3773ZM196.83 24.3773C196.662 24.116 196.588 23.8173 196.606 23.4813C196.625 23.1267 196.821 22.828 197.194 22.5853C197.456 22.4173 197.726 22.352 198.006 22.3893C198.305 22.408 198.585 22.548 198.846 22.8093C199.369 23.388 199.948 23.8453 200.582 24.1813C201.236 24.5173 202.02 24.6853 202.934 24.6853C203.308 24.6667 203.69 24.6107 204.082 24.5173C204.474 24.4053 204.81 24.2187 205.09 23.9573C205.37 23.6773 205.51 23.276 205.51 22.7533C205.51 22.2867 205.361 21.9133 205.062 21.6333C204.764 21.3533 204.372 21.1293 203.886 20.9613C203.401 20.7747 202.878 20.6067 202.318 20.4573C201.721 20.2893 201.114 20.1027 200.498 19.8973C199.901 19.692 199.36 19.4307 198.874 19.1133C198.389 18.7773 197.988 18.348 197.67 17.8253C197.372 17.3027 197.222 16.6587 197.222 15.8933C197.222 15.016 197.465 14.26 197.95 13.6253C198.454 12.9907 199.098 12.496 199.882 12.1413C200.685 11.7867 201.553 11.6093 202.486 11.6093C203.028 11.6093 203.597 11.684 204.194 11.8333C204.792 11.964 205.37 12.1787 205.93 12.4773C206.49 12.776 206.976 13.168 207.386 13.6533C207.573 13.896 207.676 14.1853 207.694 14.5213C207.732 14.8573 207.582 15.156 207.246 15.4173C207.022 15.604 206.752 15.688 206.434 15.6693C206.117 15.6507 205.856 15.548 205.65 15.3613C205.296 14.9133 204.838 14.568 204.278 14.3253C203.718 14.064 203.084 13.9333 202.374 13.9333C202.02 13.9333 201.646 13.9893 201.254 14.1013C200.881 14.1947 200.564 14.372 200.302 14.6333C200.041 14.8947 199.91 15.2773 199.91 15.7813C199.91 16.248 200.06 16.6213 200.358 16.9013C200.676 17.1813 201.086 17.4147 201.59 17.6013C202.094 17.788 202.645 17.956 203.242 18.1053C203.821 18.2547 204.39 18.432 204.95 18.6373C205.529 18.8427 206.042 19.1133 206.49 19.4493C206.957 19.7667 207.33 20.1867 207.61 20.7093C207.909 21.2133 208.058 21.8573 208.058 22.6413C208.058 23.556 207.788 24.34 207.246 24.9933C206.724 25.628 206.052 26.1133 205.23 26.4493C204.428 26.7853 203.578 26.9533 202.682 26.9533C201.618 26.9533 200.554 26.7667 199.49 26.3933C198.445 26.0013 197.558 25.3293 196.83 24.3773Z" fill="#121212"/>
</svg>
