<svg width="255" height="32" viewBox="0 0 255 32" xmlns="http://www.w3.org/2000/svg">
  <!-- Logo mark -->
  <path d="M16.0005 8.32643C16.0005 12.384 12.7112 15.6734 8.65358 15.6734H1.30664V8.32643C1.30664 4.26882 4.59597 0.979492 8.65358 0.979492C12.7112 0.979492 16.0005 4.26882 16.0005 8.32643Z" fill="#704FE6"/>
  <path d="M16 23.0205C16 18.9629 19.2893 15.6736 23.3469 15.6736H30.6939V23.0205C30.6939 27.0781 27.4045 30.3675 23.3469 30.3675C19.2893 30.3675 16 27.0781 16 23.0205Z" fill="#704FE6"/>
  <path d="M1.30664 23.0205C1.30664 27.0781 4.59597 30.3675 8.65358 30.3675H16.0005V23.0205C16.0005 18.9629 12.7112 15.6736 8.65358 15.6736C4.59597 15.6736 1.30664 18.9629 1.30664 23.0205Z" fill="#704FE6"/>
  <path d="M30.6939 8.32643C30.6939 4.26882 27.4045 0.979492 23.3469 0.979492H16V8.32643C16 12.384 19.2893 15.6734 23.3469 15.6734C27.4045 15.6734 30.6939 12.384 30.6939 8.32643Z" fill="#FFBE17"/>
  
  <!-- Text with Quicksand font -->
  <text x="40" y="24" font-size="20" font-family="Quicksand, sans-serif" fill="#121212" font-weight="600">
    WonderKids
  </text>
</svg>
